<svg xmlns="http://www.w3.org/2000/svg" width="32" height="32" viewBox="0 0 120 120">
  <!-- Octocat -->
  <path fill="#000000" d="M60 2.068c-32.96 0-59.732 26.772-59.732 59.732 0 26.38 17.055 48.77 40.82 56.664 3 0.556 4.122-1.305 4.122-2.904 0-1.44-0.051-6.235-0.09-11.334-16.65 3.607-20.11-7.167-20.11-7.167-2.722-6.923-6.648-8.753-6.648-8.753-5.437-3.727 0.413-3.653 0.413-3.653 6.03 0.427 9.186 6.193 9.186 6.193 5.335 9.144 13.985 6.498 17.357 4.96 0.54-3.854 2.1-6.497 3.825-7.99-13.395-1.514-27.485-6.69-27.485-29.75 0-6.593 2.365-11.99 6.235-16.18-0.627-1.513-2.71-7.665 0.59-16.01 0 0 5.07-1.625 16.58 6.188 4.817-1.344 9.94-2.017 15.11-2.038 5.172 0.021 10.3 0.694 15.12 2.038 11.51-7.813 16.58-6.188 16.58-6.188 3.305 8.348 1.22 14.5 0.593 16.013 3.875 4.192 6.23 9.588 6.23 16.18 0 23.11-14.1 28.22-27.53 29.71 2.17 1.865 4.09 5.53 4.09 11.14 0 8.05-0.07 14.55-0.07 16.57 0 1.606 1.115 3.47 4.13 2.898 23.764-7.896 40.818-30.284 40.818-56.664 0-32.96-26.773-59.732-59.732-59.732z"/>
  <!-- GitHub Text -->
 
</svg>

